<svg width="46" height="46" viewBox="0 0 46 46" fill="none" xmlns="http://www.w3.org/2000/svg">
<path d="M19.1667 19.1666L13.4167 13.4166" stroke="#00E0A8" stroke-width="4" stroke-linecap="round" stroke-linejoin="round"/>
<path d="M19.1667 26.8334L13.4167 32.5834" stroke="#00E0A8" stroke-width="4" stroke-linecap="round" stroke-linejoin="round"/>
<path d="M26.8333 19.1666L32.5833 13.4166" stroke="#00E0A8" stroke-width="4" stroke-linecap="round" stroke-linejoin="round"/>
<path d="M26.8333 26.8334L32.5833 32.5834" stroke="#00E0A8" stroke-width="4" stroke-linecap="round" stroke-linejoin="round"/>
<path d="M27.2263 7.93307C27.9584 7.21793 28.8262 6.65661 29.7787 6.2822C30.7312 5.90779 31.749 5.72787 32.7721 5.75305C33.7953 5.77824 34.803 6.00801 35.7359 6.42883C36.6688 6.84965 37.508 7.453 38.2041 8.20329C38.9001 8.95359 39.4389 9.83565 39.7886 10.7975C40.1383 11.7593 40.292 12.7814 40.2404 13.8035C40.1889 14.8257 39.9332 15.8271 39.4885 16.7489C39.0438 17.6706 38.419 18.494 37.651 19.1705" stroke="#00E0A8" stroke-width="4" stroke-linecap="round" stroke-linejoin="round"/>
<path d="M37.6376 26.8334C38.4119 27.5073 39.043 28.33 39.4934 29.2524C39.9438 30.1749 40.2044 31.1784 40.2597 32.2035C40.3149 33.2285 40.1638 34.2543 39.8152 35.2198C39.4666 36.1853 38.9276 37.0711 38.2303 37.8244C37.5329 38.5777 36.6914 39.1833 35.7555 39.6053C34.8197 40.0273 33.8087 40.257 32.7824 40.2809C31.7562 40.3047 30.7355 40.1223 29.7811 39.7443C28.8267 39.3663 27.9579 38.8005 27.2263 38.0804" stroke="#00E0A8" stroke-width="4" stroke-linecap="round" stroke-linejoin="round"/>
<path d="M8.37008 19.1667C7.59497 18.4923 6.96331 17.6691 6.51262 16.7458C6.06193 15.8226 5.80139 14.8182 5.7465 13.7922C5.69161 12.7663 5.84347 11.7398 6.19308 10.7738C6.54268 9.80769 7.08289 8.92174 7.78161 8.16854C8.48033 7.41534 9.32331 6.81026 10.2605 6.38924C11.1976 5.96823 12.2098 5.73987 13.237 5.71772C14.2641 5.69558 15.2852 5.88011 16.2397 6.26035C17.1941 6.64059 18.0624 7.20878 18.7929 7.93117" stroke="#00E0A8" stroke-width="4" stroke-linecap="round" stroke-linejoin="round"/>
<path d="M18.7738 38.0688C18.0397 38.7794 17.171 39.3361 16.2188 39.7062C15.2665 40.0762 14.2499 40.2523 13.2287 40.2239C12.2074 40.1955 11.2021 39.9634 10.2719 39.541C9.34167 39.1186 8.50523 38.5146 7.81174 37.7644C7.11825 37.0142 6.5817 36.1329 6.2336 35.1724C5.88551 34.2119 5.73289 33.1915 5.78473 32.1712C5.83657 31.1509 6.09181 30.1512 6.53546 29.2309C6.97911 28.3106 7.60221 27.4883 8.36817 26.8123" stroke="#00E0A8" stroke-width="4" stroke-linecap="round" stroke-linejoin="round"/>
<path d="M24.9167 15.3334H21.0833C20.0248 15.3334 19.1667 16.1915 19.1667 17.25V28.75C19.1667 29.8086 20.0248 30.6667 21.0833 30.6667H24.9167C25.9752 30.6667 26.8333 29.8086 26.8333 28.75V17.25C26.8333 16.1915 25.9752 15.3334 24.9167 15.3334Z" stroke="#00E0A8" stroke-width="4" stroke-linecap="round" stroke-linejoin="round"/>
</svg>
