<?xml version="1.0" encoding="UTF-8"?><svg id="Layer_2" xmlns="http://www.w3.org/2000/svg" viewBox="0 0 688.48 132.49"><defs><style>.cls-1{fill:#0a0a0a;}</style></defs><g id="Layer_1-2"><path class="cls-1" d="M181.15,102.42V34.4h21.36l11.05,31.23c.46,1.46.98,3.35,1.58,5.66.59,2.31,1.19,4.81,1.8,7.49.61,2.68,1.18,5.28,1.71,7.81.53,2.53.97,4.72,1.3,6.57h-2.69c.33-1.83.77-3.99,1.3-6.5.53-2.51,1.1-5.11,1.71-7.78.61-2.68,1.21-5.19,1.8-7.53.59-2.34,1.12-4.25,1.57-5.71l10.86-31.23h21.46v68.02h-14.01v-32.05c0-1.49.02-3.35.07-5.57.05-2.22.11-4.62.18-7.19.08-2.57.14-5.16.21-7.76.06-2.6.11-5.06.14-7.37h.87c-.58,2.53-1.22,5.14-1.92,7.83-.7,2.69-1.41,5.3-2.12,7.83-.72,2.53-1.39,4.85-2.03,6.96-.64,2.12-1.19,3.87-1.64,5.27l-11.28,32.05h-11.73l-11.46-32.05c-.46-1.4-1-3.14-1.64-5.23-.64-2.08-1.32-4.39-2.03-6.92-.72-2.53-1.44-5.14-2.17-7.83s-1.42-5.33-2.05-7.92h1.05c.03,2.19.08,4.58.14,7.17.06,2.59.13,5.18.21,7.78.08,2.6.14,5.02.18,7.26.05,2.24.07,4.13.07,5.68v32.05h-13.83Z"/><path class="cls-1" d="M288.88,103.43c-5.11,0-9.54-1.1-13.28-3.31-3.74-2.21-6.63-5.28-8.65-9.22-2.02-3.94-3.04-8.53-3.04-13.76s1.01-9.91,3.04-13.85c2.02-3.94,4.91-7.01,8.65-9.22s8.17-3.31,13.28-3.31,9.58,1.1,13.31,3.31,6.6,5.28,8.63,9.22c2.02,3.94,3.04,8.56,3.04,13.85s-1.01,9.82-3.04,13.76c-2.02,3.94-4.9,7.02-8.63,9.22-3.73,2.21-8.16,3.31-13.31,3.31ZM288.88,92.65c2.43,0,4.47-.68,6.12-2.03,1.64-1.35,2.88-3.21,3.7-5.57s1.23-5.01,1.23-7.97-.41-5.69-1.23-8.03c-.82-2.34-2.05-4.18-3.7-5.52-1.64-1.34-3.68-2.01-6.12-2.01s-4.47.67-6.09,2.01c-1.63,1.34-2.85,3.18-3.67,5.52-.82,2.34-1.23,5.02-1.23,8.03s.41,5.61,1.23,7.97,2.05,4.22,3.67,5.57c1.63,1.35,3.66,2.03,6.09,2.03Z"/><path class="cls-1" d="M335.22,72.89v29.54h-13.7v-51.04h12.92l.23,12.74h-.82c1.34-4.26,3.37-7.56,6.09-9.88,2.72-2.33,6.25-3.49,10.57-3.49,3.53,0,6.61.77,9.24,2.31,2.63,1.54,4.67,3.74,6.12,6.62,1.45,2.88,2.17,6.31,2.17,10.29v32.46h-13.7v-30.08c0-3.16-.81-5.65-2.44-7.44-1.63-1.8-3.89-2.69-6.78-2.69-1.92,0-3.63.42-5.14,1.26-1.51.84-2.68,2.05-3.52,3.63-.84,1.58-1.26,3.52-1.26,5.8Z"/><path class="cls-1" d="M396.49,103.29c-3.9,0-7.42-1.01-10.57-3.04-3.15-2.02-5.64-4.99-7.46-8.9-1.83-3.91-2.74-8.7-2.74-14.36s.94-10.67,2.83-14.56c1.89-3.9,4.4-6.82,7.53-8.76,3.13-1.95,6.59-2.92,10.36-2.92,2.89,0,5.3.49,7.21,1.46,1.92.97,3.47,2.18,4.66,3.61,1.19,1.43,2.07,2.82,2.65,4.15h.46v-25.56h13.7v68.02h-13.47v-8.17h-.69c-.61,1.37-1.51,2.75-2.72,4.13-1.2,1.38-2.76,2.55-4.68,3.49-1.92.94-4.28,1.42-7.08,1.42ZM400.73,92.29c2.31,0,4.29-.64,5.93-1.92s2.89-3.07,3.74-5.36,1.28-4.98,1.28-8.06-.42-5.79-1.26-8.06c-.84-2.27-2.08-4.03-3.72-5.3-1.64-1.26-3.64-1.89-5.98-1.89s-4.42.65-6.05,1.96c-1.63,1.31-2.85,3.1-3.67,5.39s-1.23,4.92-1.23,7.9.42,5.63,1.26,7.94c.84,2.31,2.07,4.12,3.7,5.43,1.63,1.31,3.63,1.96,6,1.96Z"/><path class="cls-1" d="M427.94,123.06c-.82,0-1.67-.02-2.53-.07-.87-.05-1.7-.12-2.49-.23-.79-.11-1.54-.24-2.24-.39l2.88-10.68c.55.12,1.23.24,2.05.34.82.11,1.49.16,2.01.16,2.07,0,3.7-.56,4.88-1.69,1.19-1.13,1.98-2.91,2.37-5.34l9.04-54.69c.7-4.17,1.99-7.68,3.88-10.52,1.89-2.85,4.32-5.01,7.3-6.48,2.98-1.48,6.45-2.21,10.41-2.21,1.49,0,2.86.08,4.11.23,1.25.15,2.53.4,3.83.73l-3.47,10.36c-.61-.12-1.35-.21-2.21-.27-.87-.06-1.83-.09-2.9-.09-2.01,0-3.58.55-4.72,1.64s-1.89,2.78-2.26,5.07l-9.18,55.51c-.67,4.02-1.92,7.41-3.74,10.18-1.83,2.77-4.17,4.87-7.03,6.3-2.86,1.43-6.19,2.15-10,2.15ZM468.52,51.39l-1.69,10.27h-34.33l1.73-10.27h34.28Z"/><path class="cls-1" d="M471.36,102.42v-51.04h13.24v8.9h.55c.94-3.16,2.52-5.55,4.72-7.17,2.21-1.61,4.74-2.42,7.6-2.42.7,0,1.46.04,2.28.11.82.08,1.54.19,2.15.34v12.23c-.61-.21-1.49-.38-2.65-.5-1.16-.12-2.25-.18-3.29-.18-2.07,0-3.94.45-5.62,1.35-1.67.9-2.98,2.15-3.9,3.74-.93,1.6-1.39,3.46-1.39,5.59v29.03h-13.69Z"/><path class="cls-1" d="M520.52,103.43c-3.23,0-6.12-.57-8.7-1.71-2.57-1.14-4.6-2.84-6.07-5.11-1.48-2.27-2.21-5.09-2.21-8.47,0-2.83.52-5.2,1.57-7.12,1.05-1.92,2.48-3.45,4.29-4.61,1.81-1.16,3.86-2.04,6.16-2.65,2.3-.61,4.71-1.03,7.24-1.28,2.95-.3,5.33-.59,7.14-.84,1.81-.26,3.13-.67,3.97-1.23.84-.56,1.26-1.39,1.26-2.49v-.23c0-1.46-.3-2.69-.91-3.7-.61-1-1.51-1.77-2.72-2.31-1.2-.53-2.66-.8-4.36-.8s-3.3.27-4.61.8c-1.31.53-2.37,1.24-3.2,2.12-.82.88-1.43,1.87-1.83,2.97l-12.55-2.05c.88-2.98,2.34-5.51,4.38-7.58,2.04-2.07,4.57-3.65,7.6-4.75,3.03-1.1,6.44-1.64,10.25-1.64,2.74,0,5.4.33,7.99.98,2.59.65,4.91,1.67,6.96,3.04,2.05,1.37,3.68,3.16,4.88,5.36,1.2,2.21,1.8,4.85,1.8,7.92v34.38h-12.96v-7.08h-.46c-.82,1.58-1.92,2.98-3.29,4.18-1.37,1.2-3.02,2.15-4.95,2.85-1.93.7-4.16,1.05-6.69,1.05ZM524.4,93.8c2.16,0,4.05-.43,5.68-1.28,1.63-.85,2.9-2.01,3.81-3.47s1.37-3.09,1.37-4.88v-5.52c-.4.3-1,.58-1.83.82-.82.24-1.74.46-2.74.64-1,.18-1.99.35-2.97.5s-1.84.27-2.6.37c-1.67.24-3.15.64-4.43,1.19s-2.27,1.27-2.97,2.17c-.7.9-1.05,2.05-1.05,3.45,0,1.31.33,2.41,1,3.31.67.9,1.58,1.58,2.74,2.03,1.16.46,2.48.68,3.97.68Z"/><path class="cls-1" d="M558.69,102.42v-51.04h12.69l.68,12.69h-1c.79-3.13,1.96-5.69,3.49-7.67,1.54-1.98,3.34-3.44,5.41-4.38,2.07-.94,4.25-1.42,6.53-1.42,3.68,0,6.65,1.16,8.9,3.49,2.25,2.33,3.91,5.93,4.98,10.8h-1.6c.76-3.26,2-5.94,3.72-8.06,1.72-2.12,3.76-3.68,6.12-4.7,2.36-1.02,4.83-1.53,7.42-1.53,3.13,0,5.93.68,8.38,2.05,2.45,1.37,4.38,3.34,5.8,5.91,1.42,2.57,2.12,5.71,2.12,9.43v34.42h-13.7v-31.82c0-2.89-.78-5.04-2.35-6.44-1.57-1.4-3.49-2.1-5.77-2.1-1.71,0-3.19.37-4.45,1.12-1.26.75-2.24,1.79-2.92,3.13-.68,1.34-1.03,2.91-1.03,4.7v31.41h-13.24v-32.18c0-2.5-.74-4.48-2.21-5.96-1.48-1.48-3.39-2.21-5.73-2.21-1.61,0-3.07.36-4.36,1.1-1.29.73-2.31,1.8-3.06,3.22-.75,1.42-1.12,3.14-1.12,5.18v30.86h-13.69Z"/><path class="cls-1" d="M665.19,103.43c-5.2,0-9.69-1.06-13.47-3.2-3.77-2.13-6.67-5.16-8.7-9.08-2.02-3.93-3.04-8.58-3.04-13.97s1-9.88,3.01-13.83c2.01-3.96,4.85-7.04,8.54-9.27,3.68-2.22,8-3.33,12.96-3.33,3.35,0,6.47.53,9.36,1.6,2.89,1.07,5.43,2.67,7.62,4.82s3.9,4.83,5.14,8.06c1.23,3.23,1.85,7.03,1.85,11.41v3.83h-42.87v-8.58h36.16l-6.39,2.28c0-2.65-.4-4.95-1.21-6.92-.81-1.96-2.01-3.48-3.61-4.56-1.6-1.08-3.57-1.62-5.91-1.62s-4.39.55-6.05,1.64c-1.66,1.1-2.92,2.58-3.77,4.45-.85,1.87-1.28,4.01-1.28,6.41v6.07c0,2.95.49,5.43,1.48,7.44s2.37,3.51,4.15,4.52c1.78,1,3.86,1.51,6.23,1.51,1.61,0,3.07-.23,4.38-.69,1.31-.46,2.43-1.13,3.36-2.03.93-.9,1.63-2,2.12-3.31l12.42,2.33c-.82,2.8-2.25,5.26-4.29,7.37s-4.59,3.75-7.65,4.91-6.58,1.73-10.57,1.73Z"/><path class="cls-1" d="M125.52,6.97v118.54H6.97V6.97h118.54M132.49,0H0v132.49h132.49V0h0Z"/><polyline class="cls-1" points="40.14 27.04 13.98 53.2 13.95 105.48 40.1 79.32 66.23 105.45 66.26 53.17"/><polyline class="cls-1" points="92.42 27.01 66.26 53.17 66.23 105.45 92.39 79.29 118.51 105.41 118.54 53.13"/></g></svg>