<svg width="46" height="46" viewBox="0 0 46 46" fill="none" xmlns="http://www.w3.org/2000/svg">
<path d="M26.8276 7.66663C27.5191 7.66662 28.1977 7.85367 28.7916 8.20796C29.3855 8.56226 29.8724 9.0706 30.2009 9.67913L31.1324 11.4041C31.4609 12.0127 31.9478 12.521 32.5417 12.8753C33.1356 13.2296 33.8142 13.4166 34.5057 13.4166H38.3333C39.35 13.4166 40.325 13.8205 41.0439 14.5394C41.7628 15.2583 42.1666 16.2333 42.1666 17.25V34.5C42.1666 35.5166 41.7628 36.4916 41.0439 37.2105C40.325 37.9294 39.35 38.3333 38.3333 38.3333H7.66665C6.64998 38.3333 5.67496 37.9294 4.95607 37.2105C4.23718 36.4916 3.83331 35.5166 3.83331 34.5V17.25C3.83331 16.2333 4.23718 15.2583 4.95607 14.5394C5.67496 13.8205 6.64998 13.4166 7.66665 13.4166H11.4942C12.185 13.4167 12.863 13.23 13.4565 12.8764C14.0499 12.5229 14.5368 12.0155 14.8656 11.408L15.8029 9.67529C16.1317 9.06777 16.6186 8.56039 17.2121 8.20681C17.8055 7.85323 18.4835 7.66659 19.1743 7.66663H26.8276Z" stroke="#00E0A8" stroke-width="4" stroke-linecap="round" stroke-linejoin="round"/>
<path d="M23 30.6666C26.1756 30.6666 28.75 28.0923 28.75 24.9166C28.75 21.741 26.1756 19.1666 23 19.1666C19.8244 19.1666 17.25 21.741 17.25 24.9166C17.25 28.0923 19.8244 30.6666 23 30.6666Z" stroke="#00E0A8" stroke-width="4" stroke-linecap="round" stroke-linejoin="round"/>
</svg>
