<svg width="43" height="43" viewBox="0 0 43 43" fill="none" xmlns="http://www.w3.org/2000/svg">
<path d="M19.2872 3.56476C19.3693 3.12508 19.6026 2.72797 19.9467 2.4422C20.2908 2.15643 20.724 2 21.1713 2C21.6185 2 22.0517 2.15643 22.3958 2.4422C22.7399 2.72797 22.9732 3.12508 23.0553 3.56476L25.0698 14.2176C25.2128 14.975 25.5809 15.6716 26.1259 16.2166C26.6709 16.7616 27.3676 17.1297 28.1249 17.2728L38.7778 19.2872C39.2174 19.3693 39.6145 19.6026 39.9003 19.9467C40.1861 20.2908 40.3425 20.724 40.3425 21.1713C40.3425 21.6185 40.1861 22.0517 39.9003 22.3958C39.6145 22.7399 39.2174 22.9732 38.7778 23.0553L28.1249 25.0698C27.3676 25.2128 26.6709 25.5809 26.1259 26.1259C25.5809 26.6709 25.2128 27.3676 25.0698 28.1249L23.0553 38.7778C22.9732 39.2174 22.7399 39.6145 22.3958 39.9003C22.0517 40.1861 21.6185 40.3425 21.1713 40.3425C20.724 40.3425 20.2908 40.1861 19.9467 39.9003C19.6026 39.6145 19.3693 39.2174 19.2872 38.7778L17.2728 28.1249C17.1297 27.3676 16.7616 26.6709 16.2166 26.1259C15.6716 25.5809 14.975 25.2128 14.2176 25.0698L3.56476 23.0553C3.12508 22.9732 2.72797 22.7399 2.4422 22.3958C2.15643 22.0517 2 21.6185 2 21.1713C2 20.724 2.15643 20.2908 2.4422 19.9467C2.72797 19.6026 3.12508 19.3693 3.56476 19.2872L14.2176 17.2728C14.975 17.1297 15.6716 16.7616 16.2166 16.2166C16.7616 15.6716 17.1297 14.975 17.2728 14.2176L19.2872 3.56476Z" stroke="#00E0A8" stroke-width="4" stroke-linecap="round" stroke-linejoin="round"/>
</svg>
